<svg xmlns="http://www.w3.org/2000/svg" xmlns:xlink="http://www.w3.org/1999/xlink" width="300" zoomAndPan="magnify" viewBox="0 0 224.87999 74.999997" height="100" preserveAspectRatio="xMidYMid meet" version="1.0"><defs><g/><clipPath id="f6b735d07b"><path d="M 7.496094 16.019531 L 50.222656 16.019531 L 50.222656 58.746094 L 7.496094 58.746094 Z M 7.496094 16.019531 " clip-rule="nonzero"/></clipPath></defs><path fill="#46444b" d="M 24.675781 48.234375 C 24.390625 48.234375 24.117188 48.179688 23.855469 48.070312 C 23.589844 47.960938 23.359375 47.804688 23.15625 47.605469 C 22.957031 47.402344 22.800781 47.171875 22.691406 46.90625 C 22.582031 46.644531 22.527344 46.371094 22.527344 46.085938 L 22.527344 28.90625 C 22.527344 28.621094 22.582031 28.347656 22.691406 28.082031 C 22.800781 27.820312 22.957031 27.589844 23.15625 27.386719 C 23.359375 27.1875 23.589844 27.03125 23.855469 26.921875 C 24.117188 26.8125 24.390625 26.757812 24.675781 26.757812 L 30.042969 26.757812 C 30.539062 26.757812 31.027344 26.804688 31.511719 26.902344 C 31.996094 27 32.464844 27.140625 32.921875 27.332031 C 33.375 27.519531 33.808594 27.75 34.21875 28.023438 C 34.628906 28.300781 35.011719 28.609375 35.359375 28.960938 C 35.707031 29.308594 36.019531 29.6875 36.292969 30.097656 C 36.566406 30.507812 36.800781 30.941406 36.988281 31.398438 C 37.175781 31.855469 37.320312 32.324219 37.417969 32.808594 C 37.511719 33.292969 37.5625 33.78125 37.5625 34.273438 C 37.5625 34.769531 37.511719 35.257812 37.417969 35.742188 C 37.320312 36.226562 37.175781 36.695312 36.988281 37.152344 C 36.800781 37.605469 36.566406 38.039062 36.292969 38.449219 C 36.019531 38.859375 35.707031 39.242188 35.359375 39.589844 C 35.011719 39.9375 34.628906 40.25 34.21875 40.523438 C 33.808594 40.796875 33.375 41.03125 32.921875 41.21875 C 32.464844 41.40625 31.996094 41.550781 31.511719 41.644531 C 31.027344 41.742188 30.539062 41.789062 30.042969 41.789062 L 26.824219 41.789062 L 26.824219 46.085938 C 26.824219 46.371094 26.769531 46.644531 26.660156 46.90625 C 26.550781 47.171875 26.394531 47.402344 26.195312 47.605469 C 25.992188 47.804688 25.761719 47.960938 25.496094 48.070312 C 25.234375 48.179688 24.960938 48.234375 24.675781 48.234375 Z M 26.824219 37.496094 L 30.042969 37.496094 C 30.472656 37.496094 30.882812 37.414062 31.277344 37.25 C 31.671875 37.085938 32.019531 36.855469 32.324219 36.550781 C 32.625 36.25 32.855469 35.902344 33.019531 35.507812 C 33.183594 35.113281 33.265625 34.703125 33.265625 34.273438 C 33.265625 33.847656 33.183594 33.4375 33.019531 33.042969 C 32.855469 32.648438 32.625 32.296875 32.324219 31.996094 C 32.019531 31.695312 31.671875 31.460938 31.277344 31.296875 C 30.882812 31.136719 30.472656 31.054688 30.042969 31.054688 L 26.824219 31.054688 Z M 26.824219 37.496094 " fill-opacity="1" fill-rule="nonzero"/><g clip-path="url(#f6b735d07b)"><path fill="#46444b" d="M 28.972656 58.96875 C 28.265625 58.96875 27.566406 58.9375 26.867188 58.867188 C 26.167969 58.796875 25.472656 58.695312 24.78125 58.558594 C 24.089844 58.421875 23.410156 58.25 22.738281 58.046875 C 22.0625 57.839844 21.402344 57.605469 20.753906 57.335938 C 20.101562 57.066406 19.46875 56.765625 18.847656 56.433594 C 18.226562 56.101562 17.625 55.742188 17.039062 55.351562 C 16.457031 54.960938 15.890625 54.542969 15.347656 54.097656 C 14.804688 53.648438 14.28125 53.179688 13.785156 52.679688 C 13.289062 52.183594 12.816406 51.664062 12.371094 51.121094 C 11.925781 50.574219 11.507812 50.011719 11.113281 49.425781 C 10.722656 48.839844 10.363281 48.238281 10.03125 47.617188 C 9.699219 47 9.398438 46.363281 9.128906 45.714844 C 8.863281 45.0625 8.625 44.402344 8.421875 43.730469 C 8.214844 43.054688 8.046875 42.375 7.910156 41.683594 C 7.769531 40.996094 7.667969 40.300781 7.597656 39.601562 C 7.53125 38.902344 7.496094 38.199219 7.496094 37.496094 C 7.496094 36.792969 7.53125 36.089844 7.597656 35.390625 C 7.667969 34.691406 7.769531 33.996094 7.910156 33.304688 C 8.046875 32.617188 8.214844 31.933594 8.421875 31.261719 C 8.625 30.589844 8.863281 29.925781 9.128906 29.277344 C 9.398438 28.628906 9.699219 27.992188 10.03125 27.371094 C 10.363281 26.753906 10.722656 26.148438 11.113281 25.566406 C 11.507812 24.980469 11.925781 24.414062 12.371094 23.871094 C 12.816406 23.328125 13.289062 22.808594 13.785156 22.3125 C 14.28125 21.8125 14.804688 21.339844 15.347656 20.894531 C 15.890625 20.449219 16.457031 20.03125 17.039062 19.640625 C 17.625 19.25 18.226562 18.886719 18.847656 18.554688 C 19.46875 18.226562 20.101562 17.925781 20.753906 17.65625 C 21.402344 17.386719 22.0625 17.148438 22.738281 16.945312 C 23.410156 16.742188 24.089844 16.570312 24.78125 16.433594 C 25.472656 16.296875 26.167969 16.191406 26.867188 16.125 C 27.566406 16.054688 28.265625 16.019531 28.972656 16.019531 C 29.675781 16.019531 30.375 16.054688 31.074219 16.125 C 31.777344 16.191406 32.46875 16.296875 33.160156 16.433594 C 33.851562 16.570312 34.53125 16.742188 35.203125 16.945312 C 35.878906 17.148438 36.539062 17.386719 37.1875 17.65625 C 37.839844 17.925781 38.472656 18.226562 39.09375 18.554688 C 39.714844 18.886719 40.316406 19.25 40.902344 19.640625 C 41.488281 20.03125 42.050781 20.449219 42.59375 20.894531 C 43.136719 21.339844 43.660156 21.8125 44.15625 22.3125 C 44.652344 22.808594 45.125 23.328125 45.570312 23.871094 C 46.015625 24.414062 46.4375 24.980469 46.828125 25.566406 C 47.21875 26.148438 47.578125 26.753906 47.910156 27.371094 C 48.242188 27.992188 48.542969 28.628906 48.8125 29.277344 C 49.082031 29.925781 49.316406 30.589844 49.519531 31.261719 C 49.726562 31.933594 49.894531 32.617188 50.03125 33.304688 C 50.171875 33.996094 50.273438 34.691406 50.34375 35.390625 C 50.410156 36.089844 50.445312 36.792969 50.445312 37.496094 C 50.445312 38.199219 50.410156 38.898438 50.339844 39.601562 C 50.269531 40.300781 50.167969 40.992188 50.027344 41.683594 C 49.890625 42.371094 49.71875 43.054688 49.515625 43.726562 C 49.3125 44.398438 49.074219 45.058594 48.804688 45.710938 C 48.535156 46.359375 48.234375 46.992188 47.902344 47.613281 C 47.570312 48.234375 47.210938 48.835938 46.820312 49.421875 C 46.429688 50.003906 46.007812 50.570312 45.5625 51.113281 C 45.117188 51.65625 44.644531 52.175781 44.148438 52.671875 C 43.652344 53.171875 43.132812 53.640625 42.585938 54.089844 C 42.042969 54.535156 41.480469 54.953125 40.894531 55.34375 C 40.3125 55.734375 39.710938 56.097656 39.089844 56.425781 C 38.46875 56.757812 37.835938 57.058594 37.183594 57.328125 C 36.535156 57.597656 35.875 57.835938 35.203125 58.039062 C 34.527344 58.246094 33.847656 58.417969 33.160156 58.554688 C 32.46875 58.691406 31.773438 58.796875 31.074219 58.863281 C 30.375 58.933594 29.675781 58.96875 28.972656 58.96875 Z M 28.972656 20.316406 C 28.410156 20.316406 27.847656 20.34375 27.285156 20.398438 C 26.726562 20.453125 26.171875 20.535156 25.621094 20.644531 C 25.066406 20.753906 24.523438 20.890625 23.984375 21.054688 C 23.445312 21.21875 22.917969 21.410156 22.394531 21.625 C 21.875 21.839844 21.367188 22.078125 20.871094 22.34375 C 20.375 22.609375 19.894531 22.898438 19.425781 23.210938 C 18.957031 23.523438 18.507812 23.859375 18.070312 24.214844 C 17.636719 24.574219 17.222656 24.949219 16.824219 25.347656 C 16.425781 25.746094 16.046875 26.160156 15.691406 26.597656 C 15.332031 27.03125 15 27.484375 14.6875 27.949219 C 14.375 28.417969 14.085938 28.902344 13.820312 29.398438 C 13.554688 29.894531 13.3125 30.402344 13.097656 30.921875 C 12.882812 31.441406 12.695312 31.96875 12.53125 32.507812 C 12.367188 33.046875 12.230469 33.59375 12.121094 34.144531 C 12.011719 34.695312 11.929688 35.25 11.875 35.8125 C 11.820312 36.371094 11.789062 36.933594 11.789062 37.496094 C 11.789062 38.058594 11.820312 38.621094 11.875 39.179688 C 11.929688 39.738281 12.011719 40.296875 12.121094 40.847656 C 12.230469 41.398438 12.367188 41.945312 12.53125 42.484375 C 12.695312 43.019531 12.882812 43.550781 13.097656 44.070312 C 13.3125 44.589844 13.554688 45.097656 13.820312 45.59375 C 14.085938 46.089844 14.375 46.574219 14.6875 47.039062 C 15 47.507812 15.332031 47.960938 15.691406 48.394531 C 16.046875 48.828125 16.425781 49.246094 16.824219 49.644531 C 17.222656 50.042969 17.636719 50.417969 18.070312 50.777344 C 18.507812 51.132812 18.957031 51.46875 19.425781 51.78125 C 19.894531 52.09375 20.375 52.382812 20.871094 52.648438 C 21.367188 52.914062 21.875 53.152344 22.394531 53.367188 C 22.917969 53.582031 23.445312 53.773438 23.984375 53.9375 C 24.523438 54.097656 25.066406 54.234375 25.621094 54.34375 C 26.171875 54.457031 26.726562 54.539062 27.285156 54.59375 C 27.847656 54.648438 28.410156 54.675781 28.972656 54.675781 C 29.535156 54.675781 30.09375 54.648438 30.65625 54.59375 C 31.214844 54.539062 31.769531 54.457031 32.324219 54.34375 C 32.875 54.234375 33.417969 54.097656 33.957031 53.9375 C 34.496094 53.773438 35.027344 53.582031 35.546875 53.367188 C 36.066406 53.152344 36.574219 52.914062 37.070312 52.648438 C 37.566406 52.382812 38.046875 52.09375 38.515625 51.78125 C 38.984375 51.46875 39.433594 51.132812 39.871094 50.777344 C 40.304688 50.417969 40.722656 50.042969 41.117188 49.644531 C 41.515625 49.246094 41.894531 48.828125 42.25 48.394531 C 42.609375 47.960938 42.941406 47.507812 43.253906 47.039062 C 43.566406 46.574219 43.855469 46.089844 44.121094 45.59375 C 44.386719 45.097656 44.628906 44.589844 44.84375 44.070312 C 45.058594 43.550781 45.246094 43.019531 45.410156 42.484375 C 45.574219 41.945312 45.710938 41.398438 45.820312 40.847656 C 45.929688 40.296875 46.011719 39.738281 46.066406 39.179688 C 46.125 38.621094 46.152344 38.058594 46.152344 37.496094 C 46.148438 36.933594 46.121094 36.371094 46.066406 35.8125 C 46.011719 35.253906 45.925781 34.695312 45.816406 34.144531 C 45.707031 33.59375 45.570312 33.050781 45.40625 32.511719 C 45.242188 31.972656 45.054688 31.445312 44.835938 30.925781 C 44.621094 30.40625 44.382812 29.898438 44.117188 29.402344 C 43.851562 28.90625 43.5625 28.421875 43.25 27.957031 C 42.9375 27.488281 42.601562 27.039062 42.246094 26.601562 C 41.886719 26.167969 41.511719 25.75 41.113281 25.355469 C 40.714844 24.957031 40.300781 24.578125 39.863281 24.222656 C 39.429688 23.863281 38.976562 23.53125 38.511719 23.21875 C 38.042969 22.90625 37.5625 22.617188 37.066406 22.351562 C 36.570312 22.085938 36.0625 21.84375 35.542969 21.628906 C 35.023438 21.414062 34.492188 21.222656 33.957031 21.058594 C 33.417969 20.894531 32.871094 20.757812 32.320312 20.648438 C 31.769531 20.539062 31.214844 20.457031 30.652344 20.398438 C 30.09375 20.34375 29.535156 20.316406 28.972656 20.316406 Z M 28.972656 20.316406 " fill-opacity="1" fill-rule="nonzero"/></g><g fill="#46444b" fill-opacity="1"><g transform="translate(54.939335, 46.447302)"><g><path d="M 5.609375 -6.6875 L 5.609375 0 L 1.703125 0 L 1.703125 -19 L 9.109375 -19 C 10.535156 -19 11.789062 -18.738281 12.875 -18.21875 C 13.957031 -17.695312 14.789062 -16.953125 15.375 -15.984375 C 15.957031 -15.023438 16.25 -13.929688 16.25 -12.703125 C 16.25 -10.847656 15.609375 -9.378906 14.328125 -8.296875 C 13.054688 -7.222656 11.296875 -6.6875 9.046875 -6.6875 Z M 5.609375 -9.859375 L 9.109375 -9.859375 C 10.140625 -9.859375 10.925781 -10.101562 11.46875 -10.59375 C 12.019531 -11.082031 12.296875 -11.78125 12.296875 -12.6875 C 12.296875 -13.613281 12.019531 -14.363281 11.46875 -14.9375 C 10.914062 -15.507812 10.160156 -15.804688 9.203125 -15.828125 L 5.609375 -15.828125 Z M 5.609375 -9.859375 "/></g></g></g><g fill="#46444b" fill-opacity="1"><g transform="translate(72.167014, 46.447302)"><g><path d="M 9.375 -10.578125 C 8.863281 -10.648438 8.414062 -10.6875 8.03125 -10.6875 C 6.601562 -10.6875 5.664062 -10.203125 5.21875 -9.234375 L 5.21875 0 L 1.453125 0 L 1.453125 -14.109375 L 5.015625 -14.109375 L 5.109375 -12.4375 C 5.867188 -13.726562 6.921875 -14.375 8.265625 -14.375 C 8.679688 -14.375 9.070312 -14.316406 9.4375 -14.203125 Z M 9.375 -10.578125 "/></g></g></g><g fill="#46444b" fill-opacity="1"><g transform="translate(81.908935, 46.447302)"><g><path d="M 0.859375 -7.1875 C 0.859375 -8.582031 1.128906 -9.828125 1.671875 -10.921875 C 2.210938 -12.023438 2.988281 -12.875 4 -13.46875 C 5.007812 -14.070312 6.1875 -14.375 7.53125 -14.375 C 9.4375 -14.375 10.988281 -13.789062 12.1875 -12.625 C 13.394531 -11.457031 14.066406 -9.875 14.203125 -7.875 L 14.234375 -6.921875 C 14.234375 -4.753906 13.628906 -3.015625 12.421875 -1.703125 C 11.210938 -0.390625 9.585938 0.265625 7.546875 0.265625 C 5.515625 0.265625 3.890625 -0.382812 2.671875 -1.6875 C 1.460938 -3 0.859375 -4.773438 0.859375 -7.015625 Z M 4.625 -6.921875 C 4.625 -5.578125 4.875 -4.550781 5.375 -3.84375 C 5.882812 -3.132812 6.609375 -2.78125 7.546875 -2.78125 C 8.460938 -2.78125 9.175781 -3.128906 9.6875 -3.828125 C 10.207031 -4.523438 10.46875 -5.644531 10.46875 -7.1875 C 10.46875 -8.5 10.207031 -9.515625 9.6875 -10.234375 C 9.175781 -10.960938 8.457031 -11.328125 7.53125 -11.328125 C 6.601562 -11.328125 5.882812 -10.96875 5.375 -10.25 C 4.875 -9.53125 4.625 -8.421875 4.625 -6.921875 Z M 4.625 -6.921875 "/></g></g></g><g fill="#46444b" fill-opacity="1"><g transform="translate(97.010868, 46.447302)"><g><path d="M 0.859375 -7.15625 C 0.859375 -9.363281 1.351562 -11.117188 2.34375 -12.421875 C 3.332031 -13.722656 4.679688 -14.375 6.390625 -14.375 C 7.765625 -14.375 8.898438 -13.863281 9.796875 -12.84375 L 9.796875 -20.046875 L 13.578125 -20.046875 L 13.578125 0 L 10.171875 0 L 10 -1.5 C 9.050781 -0.320312 7.835938 0.265625 6.359375 0.265625 C 4.703125 0.265625 3.367188 -0.390625 2.359375 -1.703125 C 1.359375 -3.015625 0.859375 -4.832031 0.859375 -7.15625 Z M 4.625 -6.890625 C 4.625 -5.566406 4.851562 -4.550781 5.3125 -3.84375 C 5.78125 -3.144531 6.453125 -2.796875 7.328125 -2.796875 C 8.492188 -2.796875 9.316406 -3.285156 9.796875 -4.265625 L 9.796875 -9.84375 C 9.328125 -10.820312 8.515625 -11.3125 7.359375 -11.3125 C 5.535156 -11.3125 4.625 -9.835938 4.625 -6.890625 Z M 4.625 -6.890625 "/></g></g></g><g fill="#46444b" fill-opacity="1"><g transform="translate(112.060635, 46.447302)"><g><path d="M 9.90625 -1.4375 C 8.96875 -0.300781 7.679688 0.265625 6.046875 0.265625 C 4.523438 0.265625 3.367188 -0.164062 2.578125 -1.03125 C 1.785156 -1.90625 1.378906 -3.179688 1.359375 -4.859375 L 1.359375 -14.109375 L 5.125 -14.109375 L 5.125 -5 C 5.125 -3.53125 5.796875 -2.796875 7.140625 -2.796875 C 8.410156 -2.796875 9.285156 -3.238281 9.765625 -4.125 L 9.765625 -14.109375 L 13.5625 -14.109375 L 13.5625 0 L 10 0 Z M 9.90625 -1.4375 "/></g></g></g><g fill="#46444b" fill-opacity="1"><g transform="translate(127.006071, 46.447302)"><g><path d="M 7.3125 -2.78125 C 8.007812 -2.78125 8.578125 -2.96875 9.015625 -3.34375 C 9.453125 -3.726562 9.675781 -4.238281 9.6875 -4.875 L 13.234375 -4.875 C 13.222656 -3.914062 12.957031 -3.039062 12.4375 -2.25 C 11.925781 -1.457031 11.222656 -0.835938 10.328125 -0.390625 C 9.441406 0.046875 8.460938 0.265625 7.390625 0.265625 C 5.367188 0.265625 3.773438 -0.375 2.609375 -1.65625 C 1.441406 -2.945312 0.859375 -4.722656 0.859375 -6.984375 L 0.859375 -7.234375 C 0.859375 -9.398438 1.4375 -11.128906 2.59375 -12.421875 C 3.75 -13.722656 5.335938 -14.375 7.359375 -14.375 C 9.117188 -14.375 10.53125 -13.867188 11.59375 -12.859375 C 12.664062 -11.859375 13.210938 -10.523438 13.234375 -8.859375 L 9.6875 -8.859375 C 9.675781 -9.585938 9.453125 -10.179688 9.015625 -10.640625 C 8.578125 -11.097656 8.003906 -11.328125 7.296875 -11.328125 C 6.410156 -11.328125 5.742188 -11.003906 5.296875 -10.359375 C 4.847656 -9.722656 4.625 -8.6875 4.625 -7.25 L 4.625 -6.859375 C 4.625 -5.410156 4.847656 -4.367188 5.296875 -3.734375 C 5.742188 -3.097656 6.414062 -2.78125 7.3125 -2.78125 Z M 7.3125 -2.78125 "/></g></g></g><g fill="#46444b" fill-opacity="1"><g transform="translate(140.934279, 46.447302)"><g><path d="M 5.96875 -17.59375 L 5.96875 -14.109375 L 8.375 -14.109375 L 8.375 -11.34375 L 5.96875 -11.34375 L 5.96875 -4.3125 C 5.96875 -3.78125 6.066406 -3.398438 6.265625 -3.171875 C 6.460938 -2.953125 6.84375 -2.84375 7.40625 -2.84375 C 7.820312 -2.84375 8.191406 -2.875 8.515625 -2.9375 L 8.515625 -0.078125 C 7.773438 0.148438 7.015625 0.265625 6.234375 0.265625 C 3.585938 0.265625 2.238281 -1.070312 2.1875 -3.75 L 2.1875 -11.34375 L 0.125 -11.34375 L 0.125 -14.109375 L 2.1875 -14.109375 L 2.1875 -17.59375 Z M 5.96875 -17.59375 "/></g></g></g><g fill="#46444b" fill-opacity="1"><g transform="translate(149.958922, 46.447302)"><g/></g></g><g fill="#46444b" fill-opacity="1"><g transform="translate(156.610033, 46.447302)"><g><path d="M 17.15625 0 L 13.234375 0 L 13.234375 -8.140625 L 5.609375 -8.140625 L 5.609375 0 L 1.703125 0 L 1.703125 -19 L 5.609375 -19 L 5.609375 -11.296875 L 13.234375 -11.296875 L 13.234375 -19 L 17.15625 -19 Z M 17.15625 0 "/></g></g></g><g fill="#46444b" fill-opacity="1"><g transform="translate(175.480928, 46.447302)"><g><path d="M 9.90625 -1.4375 C 8.96875 -0.300781 7.679688 0.265625 6.046875 0.265625 C 4.523438 0.265625 3.367188 -0.164062 2.578125 -1.03125 C 1.785156 -1.90625 1.378906 -3.179688 1.359375 -4.859375 L 1.359375 -14.109375 L 5.125 -14.109375 L 5.125 -5 C 5.125 -3.53125 5.796875 -2.796875 7.140625 -2.796875 C 8.410156 -2.796875 9.285156 -3.238281 9.765625 -4.125 L 9.765625 -14.109375 L 13.5625 -14.109375 L 13.5625 0 L 10 0 Z M 9.90625 -1.4375 "/></g></g></g><g fill="#46444b" fill-opacity="1"><g transform="translate(190.426364, 46.447302)"><g><path d="M 4.921875 -14.109375 L 5.03125 -12.484375 C 6.039062 -13.742188 7.394531 -14.375 9.09375 -14.375 C 10.59375 -14.375 11.707031 -13.929688 12.4375 -13.046875 C 13.164062 -12.171875 13.539062 -10.863281 13.5625 -9.125 L 13.5625 0 L 9.78125 0 L 9.78125 -9.03125 C 9.78125 -9.832031 9.601562 -10.410156 9.25 -10.765625 C 8.90625 -11.128906 8.332031 -11.3125 7.53125 -11.3125 C 6.46875 -11.3125 5.671875 -10.859375 5.140625 -9.953125 L 5.140625 0 L 1.375 0 L 1.375 -14.109375 Z M 4.921875 -14.109375 "/></g></g></g><g fill="#46444b" fill-opacity="1"><g transform="translate(205.384842, 46.447302)"><g><path d="M 5.96875 -17.59375 L 5.96875 -14.109375 L 8.375 -14.109375 L 8.375 -11.34375 L 5.96875 -11.34375 L 5.96875 -4.3125 C 5.96875 -3.78125 6.066406 -3.398438 6.265625 -3.171875 C 6.460938 -2.953125 6.84375 -2.84375 7.40625 -2.84375 C 7.820312 -2.84375 8.191406 -2.875 8.515625 -2.9375 L 8.515625 -0.078125 C 7.773438 0.148438 7.015625 0.265625 6.234375 0.265625 C 3.585938 0.265625 2.238281 -1.070312 2.1875 -3.75 L 2.1875 -11.34375 L 0.125 -11.34375 L 0.125 -14.109375 L 2.1875 -14.109375 L 2.1875 -17.59375 Z M 5.96875 -17.59375 "/></g></g></g></svg>