<svg xmlns="http://www.w3.org/2000/svg" xmlns:xlink="http://www.w3.org/1999/xlink" width="300" zoomAndPan="magnify" viewBox="0 0 224.87999 74.999997" height="100" preserveAspectRatio="xMidYMid meet" version="1.0"><defs><g/><clipPath id="73cfa3734d"><path d="M 197 3 L 217 3 L 217 34 L 197 34 Z M 197 3 " clip-rule="nonzero"/></clipPath><clipPath id="56cd7a3397"><path d="M 187.359375 13.703125 L 213.6875 2.832031 L 224.84375 29.851562 L 198.515625 40.722656 Z M 187.359375 13.703125 " clip-rule="nonzero"/></clipPath><clipPath id="334a292cd4"><path d="M 187.359375 13.703125 L 213.6875 2.832031 L 224.84375 29.851562 L 198.515625 40.722656 Z M 187.359375 13.703125 " clip-rule="nonzero"/></clipPath><clipPath id="1f133cc168"><path d="M 195 25 L 207 25 L 207 38 L 195 38 Z M 195 25 " clip-rule="nonzero"/></clipPath><clipPath id="911b408780"><path d="M 187.359375 13.703125 L 213.6875 2.832031 L 224.84375 29.851562 L 198.515625 40.722656 Z M 187.359375 13.703125 " clip-rule="nonzero"/></clipPath><clipPath id="be54805ede"><path d="M 187.359375 13.703125 L 213.6875 2.832031 L 224.84375 29.851562 L 198.515625 40.722656 Z M 187.359375 13.703125 " clip-rule="nonzero"/></clipPath></defs><g clip-path="url(#73cfa3734d)"><g clip-path="url(#56cd7a3397)"><g clip-path="url(#334a292cd4)"><path fill="#37bbcf" d="M 212.609375 3.976562 C 213.292969 5.214844 213.742188 6.210938 214.050781 7.058594 C 214.535156 8.394531 214.648438 9.351562 214.742188 10.308594 C 215.085938 13.570312 214.601562 16.628906 213.535156 19.402344 C 212.792969 21.332031 211.761719 23.117188 210.5 24.742188 C 207.386719 28.730469 202.847656 31.722656 197.601562 33.082031 C 197.367188 33.136719 197.222656 33.375 197.277344 33.609375 C 197.332031 33.847656 197.566406 33.992188 197.804688 33.9375 C 203.382812 32.753906 208.359375 29.855469 211.75 25.742188 C 213.164062 24.019531 214.300781 22.085938 215.082031 19.988281 C 216.199219 16.984375 216.589844 13.652344 216.117188 10.140625 C 215.96875 9.097656 215.804688 8.050781 215.207031 6.609375 C 214.84375 5.730469 214.320312 4.703125 213.539062 3.433594 C 213.390625 3.175781 213.058594 3.089844 212.800781 3.242188 C 212.546875 3.390625 212.457031 3.722656 212.609375 3.976562 Z M 212.609375 3.976562 " fill-opacity="1" fill-rule="evenodd"/></g></g></g><g clip-path="url(#1f133cc168)"><g clip-path="url(#911b408780)"><g clip-path="url(#be54805ede)"><path fill="#37bbcf" d="M 200.070312 25.667969 C 199.683594 26.453125 198.808594 28.121094 197.996094 29.769531 C 196.960938 31.863281 196.003906 33.910156 196.003906 33.910156 C 195.90625 34.125 195.902344 34.367188 195.992188 34.582031 C 196.082031 34.796875 196.261719 34.964844 196.480469 35.042969 C 196.480469 35.042969 199.394531 36.007812 201.980469 36.765625 C 203.707031 37.273438 205.285156 37.679688 205.757812 37.742188 C 205.992188 37.789062 206.226562 37.632812 206.269531 37.394531 C 206.3125 37.15625 206.160156 36.925781 205.921875 36.882812 L 197.878906 33.792969 C 198.230469 32.996094 198.792969 31.707031 199.34375 30.382812 C 200.054688 28.679688 200.738281 26.917969 201.054688 26.101562 C 201.175781 25.828125 201.050781 25.511719 200.777344 25.390625 C 200.507812 25.269531 200.1875 25.394531 200.070312 25.667969 Z M 200.070312 25.667969 " fill-opacity="1" fill-rule="evenodd"/></g></g></g><g fill="#37bbcf" fill-opacity="1"><g transform="translate(7.515657, 52.001845)"><g><path d="M 0.671875 -5.28125 C 0.671875 -6.882812 1.050781 -8.171875 1.8125 -9.140625 C 2.570312 -10.117188 3.59375 -10.609375 4.875 -10.609375 C 6.019531 -10.609375 6.910156 -10.21875 7.546875 -9.4375 L 7.671875 -10.421875 L 10.1875 -10.421875 L 10.1875 -0.34375 C 10.1875 0.5625 9.976562 1.351562 9.5625 2.03125 C 9.144531 2.707031 8.5625 3.222656 7.8125 3.578125 C 7.0625 3.929688 6.1875 4.109375 5.1875 4.109375 C 4.414062 4.109375 3.664062 3.953125 2.9375 3.640625 C 2.21875 3.335938 1.671875 2.945312 1.296875 2.46875 L 2.53125 0.765625 C 3.226562 1.546875 4.070312 1.9375 5.0625 1.9375 C 5.789062 1.9375 6.359375 1.738281 6.765625 1.34375 C 7.179688 0.945312 7.390625 0.382812 7.390625 -0.34375 L 7.390625 -0.890625 C 6.753906 -0.171875 5.910156 0.1875 4.859375 0.1875 C 3.609375 0.1875 2.597656 -0.300781 1.828125 -1.28125 C 1.054688 -2.257812 0.671875 -3.554688 0.671875 -5.171875 Z M 3.453125 -5.078125 C 3.453125 -4.140625 3.640625 -3.398438 4.015625 -2.859375 C 4.390625 -2.328125 4.910156 -2.0625 5.578125 -2.0625 C 6.421875 -2.0625 7.023438 -2.378906 7.390625 -3.015625 L 7.390625 -7.390625 C 7.023438 -8.023438 6.425781 -8.34375 5.59375 -8.34375 C 4.925781 -8.34375 4.398438 -8.066406 4.015625 -7.515625 C 3.640625 -6.972656 3.453125 -6.160156 3.453125 -5.078125 Z M 3.453125 -5.078125 "/></g></g></g><g fill="#37bbcf" fill-opacity="1"><g transform="translate(18.76998, 52.001845)"><g><path d="M 4 0 L 1.21875 0 L 1.21875 -10.421875 L 4 -10.421875 Z M 1.046875 -13.109375 C 1.046875 -13.523438 1.1875 -13.867188 1.46875 -14.140625 C 1.75 -14.410156 2.128906 -14.546875 2.609375 -14.546875 C 3.085938 -14.546875 3.46875 -14.410156 3.75 -14.140625 C 4.03125 -13.867188 4.171875 -13.523438 4.171875 -13.109375 C 4.171875 -12.691406 4.023438 -12.347656 3.734375 -12.078125 C 3.453125 -11.804688 3.078125 -11.671875 2.609375 -11.671875 C 2.140625 -11.671875 1.757812 -11.804688 1.46875 -12.078125 C 1.1875 -12.347656 1.046875 -12.691406 1.046875 -13.109375 Z M 1.046875 -13.109375 "/></g></g></g><g fill="#37bbcf" fill-opacity="1"><g transform="translate(23.997609, 52.001845)"><g><path d="M 4.40625 -12.984375 L 4.40625 -10.421875 L 6.1875 -10.421875 L 6.1875 -8.375 L 4.40625 -8.375 L 4.40625 -3.171875 C 4.40625 -2.785156 4.476562 -2.507812 4.625 -2.34375 C 4.769531 -2.175781 5.050781 -2.09375 5.46875 -2.09375 C 5.78125 -2.09375 6.050781 -2.117188 6.28125 -2.171875 L 6.28125 -0.0625 C 5.738281 0.101562 5.179688 0.1875 4.609375 0.1875 C 2.648438 0.1875 1.65625 -0.796875 1.625 -2.765625 L 1.625 -8.375 L 0.09375 -8.375 L 0.09375 -10.421875 L 1.625 -10.421875 L 1.625 -12.984375 Z M 4.40625 -12.984375 "/></g></g></g><g fill="#37bbcf" fill-opacity="1"><g transform="translate(35.569633, 52.001845)"><g><path d="M 5.40625 -2.046875 C 5.914062 -2.046875 6.332031 -2.1875 6.65625 -2.46875 C 6.976562 -2.75 7.144531 -3.125 7.15625 -3.59375 L 9.765625 -3.59375 C 9.753906 -2.894531 9.5625 -2.25 9.1875 -1.65625 C 8.8125 -1.070312 8.289062 -0.617188 7.625 -0.296875 C 6.96875 0.0234375 6.242188 0.1875 5.453125 0.1875 C 3.960938 0.1875 2.785156 -0.28125 1.921875 -1.21875 C 1.066406 -2.164062 0.640625 -3.476562 0.640625 -5.15625 L 0.640625 -5.328125 C 0.640625 -6.929688 1.066406 -8.210938 1.921875 -9.171875 C 2.773438 -10.128906 3.945312 -10.609375 5.4375 -10.609375 C 6.738281 -10.609375 7.78125 -10.238281 8.5625 -9.5 C 9.351562 -8.757812 9.753906 -7.769531 9.765625 -6.53125 L 7.15625 -6.53125 C 7.144531 -7.070312 6.976562 -7.507812 6.65625 -7.84375 C 6.332031 -8.1875 5.90625 -8.359375 5.375 -8.359375 C 4.726562 -8.359375 4.238281 -8.117188 3.90625 -7.640625 C 3.582031 -7.171875 3.421875 -6.410156 3.421875 -5.359375 L 3.421875 -5.0625 C 3.421875 -3.988281 3.582031 -3.21875 3.90625 -2.75 C 4.238281 -2.28125 4.738281 -2.046875 5.40625 -2.046875 Z M 5.40625 -2.046875 "/></g></g></g><g fill="#37bbcf" fill-opacity="1"><g transform="translate(45.851598, 52.001845)"><g><path d="M 4 0 L 1.21875 0 L 1.21875 -14.796875 L 4 -14.796875 Z M 4 0 "/></g></g></g><g fill="#37bbcf" fill-opacity="1"><g transform="translate(51.079226, 52.001845)"><g><path d="M 0.640625 -5.3125 C 0.640625 -6.34375 0.835938 -7.257812 1.234375 -8.0625 C 1.628906 -8.875 2.203125 -9.5 2.953125 -9.9375 C 3.703125 -10.382812 4.570312 -10.609375 5.5625 -10.609375 C 6.96875 -10.609375 8.113281 -10.175781 9 -9.3125 C 9.882812 -8.457031 10.378906 -7.289062 10.484375 -5.8125 L 10.5 -5.109375 C 10.5 -3.503906 10.050781 -2.21875 9.15625 -1.25 C 8.269531 -0.289062 7.078125 0.1875 5.578125 0.1875 C 4.078125 0.1875 2.878906 -0.289062 1.984375 -1.25 C 1.085938 -2.21875 0.640625 -3.53125 0.640625 -5.1875 Z M 3.421875 -5.109375 C 3.421875 -4.117188 3.601562 -3.359375 3.96875 -2.828125 C 4.34375 -2.304688 4.878906 -2.046875 5.578125 -2.046875 C 6.242188 -2.046875 6.765625 -2.300781 7.140625 -2.8125 C 7.523438 -3.332031 7.71875 -4.164062 7.71875 -5.3125 C 7.71875 -6.28125 7.523438 -7.03125 7.140625 -7.5625 C 6.765625 -8.09375 6.238281 -8.359375 5.5625 -8.359375 C 4.875 -8.359375 4.34375 -8.09375 3.96875 -7.5625 C 3.601562 -7.03125 3.421875 -6.210938 3.421875 -5.109375 Z M 3.421875 -5.109375 "/></g></g></g><g fill="#37bbcf" fill-opacity="1"><g transform="translate(62.227649, 52.001845)"><g><path d="M 3.625 -10.421875 L 3.71875 -9.21875 C 4.457031 -10.144531 5.453125 -10.609375 6.703125 -10.609375 C 7.804688 -10.609375 8.628906 -10.285156 9.171875 -9.640625 C 9.710938 -8.992188 9.988281 -8.023438 10 -6.734375 L 10 0 L 7.21875 0 L 7.21875 -6.65625 C 7.21875 -7.25 7.085938 -7.675781 6.828125 -7.9375 C 6.578125 -8.207031 6.15625 -8.34375 5.5625 -8.34375 C 4.769531 -8.34375 4.179688 -8.007812 3.796875 -7.34375 L 3.796875 0 L 1.015625 0 L 1.015625 -10.421875 Z M 3.625 -10.421875 "/></g></g></g><g fill="#37bbcf" fill-opacity="1"><g transform="translate(73.270172, 52.001845)"><g><path d="M 5.859375 0.1875 C 4.335938 0.1875 3.09375 -0.28125 2.125 -1.21875 C 1.164062 -2.15625 0.6875 -3.398438 0.6875 -4.953125 L 0.6875 -5.234375 C 0.6875 -6.273438 0.890625 -7.207031 1.296875 -8.03125 C 1.703125 -8.851562 2.273438 -9.488281 3.015625 -9.9375 C 3.753906 -10.382812 4.601562 -10.609375 5.5625 -10.609375 C 6.976562 -10.609375 8.09375 -10.160156 8.90625 -9.265625 C 9.726562 -8.367188 10.140625 -7.09375 10.140625 -5.4375 L 10.140625 -4.296875 L 3.515625 -4.296875 C 3.609375 -3.617188 3.878906 -3.070312 4.328125 -2.65625 C 4.773438 -2.25 5.347656 -2.046875 6.046875 -2.046875 C 7.117188 -2.046875 7.957031 -2.4375 8.5625 -3.21875 L 9.921875 -1.6875 C 9.503906 -1.09375 8.9375 -0.628906 8.21875 -0.296875 C 7.507812 0.0234375 6.722656 0.1875 5.859375 0.1875 Z M 5.546875 -8.359375 C 4.992188 -8.359375 4.546875 -8.171875 4.203125 -7.796875 C 3.859375 -7.421875 3.640625 -6.890625 3.546875 -6.203125 L 7.40625 -6.203125 L 7.40625 -6.421875 C 7.394531 -7.035156 7.226562 -7.507812 6.90625 -7.84375 C 6.59375 -8.1875 6.140625 -8.359375 5.546875 -8.359375 Z M 5.546875 -8.359375 "/></g></g></g><g fill="#37bbcf" fill-opacity="1"><g transform="translate(88.83753, 52.001845)"><g><path d="M 3.625 -10.421875 L 3.71875 -9.21875 C 4.457031 -10.144531 5.453125 -10.609375 6.703125 -10.609375 C 7.804688 -10.609375 8.628906 -10.285156 9.171875 -9.640625 C 9.710938 -8.992188 9.988281 -8.023438 10 -6.734375 L 10 0 L 7.21875 0 L 7.21875 -6.65625 C 7.21875 -7.25 7.085938 -7.675781 6.828125 -7.9375 C 6.578125 -8.207031 6.15625 -8.34375 5.5625 -8.34375 C 4.769531 -8.34375 4.179688 -8.007812 3.796875 -7.34375 L 3.796875 0 L 1.015625 0 L 1.015625 -10.421875 Z M 3.625 -10.421875 "/></g></g></g><g fill="#37bbcf" fill-opacity="1"><g transform="translate(99.880052, 52.001845)"><g><path d="M 0.640625 -5.3125 C 0.640625 -6.34375 0.835938 -7.257812 1.234375 -8.0625 C 1.628906 -8.875 2.203125 -9.5 2.953125 -9.9375 C 3.703125 -10.382812 4.570312 -10.609375 5.5625 -10.609375 C 6.96875 -10.609375 8.113281 -10.175781 9 -9.3125 C 9.882812 -8.457031 10.378906 -7.289062 10.484375 -5.8125 L 10.5 -5.109375 C 10.5 -3.503906 10.050781 -2.21875 9.15625 -1.25 C 8.269531 -0.289062 7.078125 0.1875 5.578125 0.1875 C 4.078125 0.1875 2.878906 -0.289062 1.984375 -1.25 C 1.085938 -2.21875 0.640625 -3.53125 0.640625 -5.1875 Z M 3.421875 -5.109375 C 3.421875 -4.117188 3.601562 -3.359375 3.96875 -2.828125 C 4.34375 -2.304688 4.878906 -2.046875 5.578125 -2.046875 C 6.242188 -2.046875 6.765625 -2.300781 7.140625 -2.8125 C 7.523438 -3.332031 7.71875 -4.164062 7.71875 -5.3125 C 7.71875 -6.28125 7.523438 -7.03125 7.140625 -7.5625 C 6.765625 -8.09375 6.238281 -8.359375 5.5625 -8.359375 C 4.875 -8.359375 4.34375 -8.09375 3.96875 -7.5625 C 3.601562 -7.03125 3.421875 -6.210938 3.421875 -5.109375 Z M 3.421875 -5.109375 "/></g></g></g><g fill="#37bbcf" fill-opacity="1"><g transform="translate(111.028475, 52.001845)"><g><path d="M 4.40625 -12.984375 L 4.40625 -10.421875 L 6.1875 -10.421875 L 6.1875 -8.375 L 4.40625 -8.375 L 4.40625 -3.171875 C 4.40625 -2.785156 4.476562 -2.507812 4.625 -2.34375 C 4.769531 -2.175781 5.050781 -2.09375 5.46875 -2.09375 C 5.78125 -2.09375 6.050781 -2.117188 6.28125 -2.171875 L 6.28125 -0.0625 C 5.738281 0.101562 5.179688 0.1875 4.609375 0.1875 C 2.648438 0.1875 1.65625 -0.796875 1.625 -2.765625 L 1.625 -8.375 L 0.09375 -8.375 L 0.09375 -10.421875 L 1.625 -10.421875 L 1.625 -12.984375 Z M 4.40625 -12.984375 "/></g></g></g><g fill="#37bbcf" fill-opacity="1"><g transform="translate(117.690573, 52.001845)"><g><path d="M 4 0 L 1.21875 0 L 1.21875 -10.421875 L 4 -10.421875 Z M 1.046875 -13.109375 C 1.046875 -13.523438 1.1875 -13.867188 1.46875 -14.140625 C 1.75 -14.410156 2.128906 -14.546875 2.609375 -14.546875 C 3.085938 -14.546875 3.46875 -14.410156 3.75 -14.140625 C 4.03125 -13.867188 4.171875 -13.523438 4.171875 -13.109375 C 4.171875 -12.691406 4.023438 -12.347656 3.734375 -12.078125 C 3.453125 -11.804688 3.078125 -11.671875 2.609375 -11.671875 C 2.140625 -11.671875 1.757812 -11.804688 1.46875 -12.078125 C 1.1875 -12.347656 1.046875 -12.691406 1.046875 -13.109375 Z M 1.046875 -13.109375 "/></g></g></g><g fill="#37bbcf" fill-opacity="1"><g transform="translate(122.918201, 52.001845)"><g><path d="M 0.640625 -5.3125 C 0.640625 -6.34375 0.835938 -7.257812 1.234375 -8.0625 C 1.628906 -8.875 2.203125 -9.5 2.953125 -9.9375 C 3.703125 -10.382812 4.570312 -10.609375 5.5625 -10.609375 C 6.96875 -10.609375 8.113281 -10.175781 9 -9.3125 C 9.882812 -8.457031 10.378906 -7.289062 10.484375 -5.8125 L 10.5 -5.109375 C 10.5 -3.503906 10.050781 -2.21875 9.15625 -1.25 C 8.269531 -0.289062 7.078125 0.1875 5.578125 0.1875 C 4.078125 0.1875 2.878906 -0.289062 1.984375 -1.25 C 1.085938 -2.21875 0.640625 -3.53125 0.640625 -5.1875 Z M 3.421875 -5.109375 C 3.421875 -4.117188 3.601562 -3.359375 3.96875 -2.828125 C 4.34375 -2.304688 4.878906 -2.046875 5.578125 -2.046875 C 6.242188 -2.046875 6.765625 -2.300781 7.140625 -2.8125 C 7.523438 -3.332031 7.71875 -4.164062 7.71875 -5.3125 C 7.71875 -6.28125 7.523438 -7.03125 7.140625 -7.5625 C 6.765625 -8.09375 6.238281 -8.359375 5.5625 -8.359375 C 4.875 -8.359375 4.34375 -8.09375 3.96875 -7.5625 C 3.601562 -7.03125 3.421875 -6.210938 3.421875 -5.109375 Z M 3.421875 -5.109375 "/></g></g></g><g fill="#37bbcf" fill-opacity="1"><g transform="translate(134.066624, 52.001845)"><g><path d="M 3.625 -10.421875 L 3.71875 -9.21875 C 4.457031 -10.144531 5.453125 -10.609375 6.703125 -10.609375 C 7.804688 -10.609375 8.628906 -10.285156 9.171875 -9.640625 C 9.710938 -8.992188 9.988281 -8.023438 10 -6.734375 L 10 0 L 7.21875 0 L 7.21875 -6.65625 C 7.21875 -7.25 7.085938 -7.675781 6.828125 -7.9375 C 6.578125 -8.207031 6.15625 -8.34375 5.5625 -8.34375 C 4.769531 -8.34375 4.179688 -8.007812 3.796875 -7.34375 L 3.796875 0 L 1.015625 0 L 1.015625 -10.421875 Z M 3.625 -10.421875 "/></g></g></g><g fill="#37bbcf" fill-opacity="1"><g transform="translate(145.109147, 52.001845)"><g><path d="M 6.484375 -4.875 L 1.0625 -4.875 L 1.0625 -7.125 L 6.484375 -7.125 Z M 6.484375 -4.875 "/></g></g></g><g fill="#37bbcf" fill-opacity="1"><g transform="translate(152.753229, 52.001845)"><g><path d="M 1.828125 0 L 1.828125 -8.375 L 0.28125 -8.375 L 0.28125 -10.421875 L 1.828125 -10.421875 L 1.828125 -11.296875 C 1.828125 -12.472656 2.160156 -13.378906 2.828125 -14.015625 C 3.503906 -14.660156 4.445312 -14.984375 5.65625 -14.984375 C 6.039062 -14.984375 6.507812 -14.921875 7.0625 -14.796875 L 7.03125 -12.640625 C 6.800781 -12.703125 6.519531 -12.734375 6.1875 -12.734375 C 5.144531 -12.734375 4.625 -12.238281 4.625 -11.25 L 4.625 -10.421875 L 6.6875 -10.421875 L 6.6875 -8.375 L 4.625 -8.375 L 4.625 0 Z M 1.828125 0 "/></g></g></g><g fill="#37bbcf" fill-opacity="1"><g transform="translate(159.819673, 52.001845)"><g><path d="M 4 0 L 1.21875 0 L 1.21875 -14.796875 L 4 -14.796875 Z M 4 0 "/></g></g></g><g fill="#37bbcf" fill-opacity="1"><g transform="translate(165.047302, 52.001845)"><g><path d="M 0.640625 -5.3125 C 0.640625 -6.34375 0.835938 -7.257812 1.234375 -8.0625 C 1.628906 -8.875 2.203125 -9.5 2.953125 -9.9375 C 3.703125 -10.382812 4.570312 -10.609375 5.5625 -10.609375 C 6.96875 -10.609375 8.113281 -10.175781 9 -9.3125 C 9.882812 -8.457031 10.378906 -7.289062 10.484375 -5.8125 L 10.5 -5.109375 C 10.5 -3.503906 10.050781 -2.21875 9.15625 -1.25 C 8.269531 -0.289062 7.078125 0.1875 5.578125 0.1875 C 4.078125 0.1875 2.878906 -0.289062 1.984375 -1.25 C 1.085938 -2.21875 0.640625 -3.53125 0.640625 -5.1875 Z M 3.421875 -5.109375 C 3.421875 -4.117188 3.601562 -3.359375 3.96875 -2.828125 C 4.34375 -2.304688 4.878906 -2.046875 5.578125 -2.046875 C 6.242188 -2.046875 6.765625 -2.300781 7.140625 -2.8125 C 7.523438 -3.332031 7.71875 -4.164062 7.71875 -5.3125 C 7.71875 -6.28125 7.523438 -7.03125 7.140625 -7.5625 C 6.765625 -8.09375 6.238281 -8.359375 5.5625 -8.359375 C 4.875 -8.359375 4.34375 -8.09375 3.96875 -7.5625 C 3.601562 -7.03125 3.421875 -6.210938 3.421875 -5.109375 Z M 3.421875 -5.109375 "/></g></g></g><g fill="#37bbcf" fill-opacity="1"><g transform="translate(176.195734, 52.001845)"><g><path d="M 10.125 -3.78125 L 11.5 -10.421875 L 14.1875 -10.421875 L 11.53125 0 L 9.1875 0 L 7.21875 -6.5625 L 5.25 0 L 2.921875 0 L 0.265625 -10.421875 L 2.953125 -10.421875 L 4.3125 -3.796875 L 6.21875 -10.421875 L 8.234375 -10.421875 Z M 10.125 -3.78125 "/></g></g></g></svg>