<svg xmlns="http://www.w3.org/2000/svg" xmlns:xlink="http://www.w3.org/1999/xlink" width="200" zoomAndPan="magnify" viewBox="0 0 150 149.999998" height="200" preserveAspectRatio="xMidYMid meet" version="1.0"><defs><clipPath id="29c22be9b9"><path d="M 54 26 L 97 26 L 97 124.011719 L 54 124.011719 Z M 54 26 " clip-rule="nonzero"/></clipPath></defs><path fill="#37bbcf" d="M 40.324219 110.367188 C 38.242188 110.367188 36.855469 109.671875 35.46875 108.285156 L 7.730469 80.546875 C 4.957031 77.773438 4.957031 73.613281 7.730469 70.839844 L 35.46875 43.101562 C 38.242188 40.328125 42.40625 40.328125 45.179688 43.101562 C 47.953125 45.875 47.953125 50.035156 45.179688 52.808594 L 22.292969 75.691406 L 45.179688 98.578125 C 47.953125 101.351562 47.953125 105.511719 45.179688 108.285156 C 43.792969 109.671875 42.40625 110.367188 40.324219 110.367188 Z M 40.324219 110.367188 " fill-opacity="1" fill-rule="nonzero"/><path fill="#37bbcf" d="M 109.671875 110.367188 C 107.589844 110.367188 106.203125 109.671875 104.816406 108.285156 C 102.042969 105.511719 102.042969 101.351562 104.816406 98.578125 L 127.703125 75.691406 L 104.816406 52.808594 C 102.042969 50.035156 102.042969 45.875 104.816406 43.101562 C 107.589844 40.328125 111.75 40.328125 114.527344 43.101562 L 142.265625 70.839844 C 145.039062 73.613281 145.039062 77.773438 142.265625 80.546875 L 114.527344 108.285156 C 113.140625 109.671875 111.75 110.367188 109.671875 110.367188 Z M 109.671875 110.367188 " fill-opacity="1" fill-rule="nonzero"/><g clip-path="url(#29c22be9b9)"><path fill="#37bbcf" d="M 61.128906 124.234375 C 60.433594 124.234375 59.742188 124.234375 59.046875 123.542969 C 55.582031 122.15625 53.5 118.6875 54.886719 114.527344 L 82.625 31.3125 C 84.011719 27.84375 87.480469 25.761719 91.640625 27.148438 C 95.109375 28.539062 97.1875 32.003906 95.800781 36.164062 L 68.0625 119.382812 C 66.675781 122.15625 63.902344 124.234375 61.128906 124.234375 Z M 61.128906 124.234375 " fill-opacity="1" fill-rule="nonzero"/></g></svg>