<svg xmlns="http://www.w3.org/2000/svg" xmlns:xlink="http://www.w3.org/1999/xlink" width="200" zoomAndPan="magnify" viewBox="0 0 150 149.999998" height="200" preserveAspectRatio="xMidYMid meet" version="1.0"><defs><g/></defs><g fill="#37bbcf" fill-opacity="1"><g transform="translate(8.799719, 135.92696)"><g><path d="M 98.671875 0 L 33.625 -99.953125 L 33.625 -19.734375 C 33.625 -17.023438 34.003906 -14.847656 34.765625 -13.203125 C 35.523438 -11.566406 36.539062 -10.3125 37.8125 -9.4375 C 39.082031 -8.5625 40.59375 -7.984375 42.34375 -7.703125 C 44.09375 -7.421875 45.929688 -7.28125 47.859375 -7.28125 L 50.140625 -7.28125 L 50.140625 0 L 6.609375 0 L 6.609375 -7.28125 L 8.8125 -7.28125 C 10.789062 -7.28125 12.640625 -7.421875 14.359375 -7.703125 C 16.078125 -7.984375 17.585938 -8.5625 18.890625 -9.4375 C 20.191406 -10.3125 21.207031 -11.566406 21.9375 -13.203125 C 22.664062 -14.847656 23.03125 -17.023438 23.03125 -19.734375 L 23.03125 -104.78125 C 23.03125 -107.320312 22.648438 -109.367188 21.890625 -110.921875 C 21.128906 -112.472656 20.097656 -113.671875 18.796875 -114.515625 C 17.503906 -115.359375 15.992188 -115.90625 14.265625 -116.15625 C 12.546875 -116.414062 10.726562 -116.546875 8.8125 -116.546875 L 6.609375 -116.546875 L 6.609375 -123.828125 L 38.375 -123.828125 L 100.453125 -27.953125 L 100.453125 -104.78125 C 100.453125 -107.320312 100.070312 -109.367188 99.3125 -110.921875 C 98.550781 -112.472656 97.519531 -113.671875 96.21875 -114.515625 C 94.914062 -115.359375 93.40625 -115.90625 91.6875 -116.15625 C 89.96875 -116.414062 88.144531 -116.546875 86.21875 -116.546875 L 83.9375 -116.546875 L 83.9375 -123.828125 L 127.46875 -123.828125 L 127.46875 -116.546875 L 125.28125 -116.546875 C 123.300781 -116.546875 121.445312 -116.40625 119.71875 -116.125 C 118 -115.84375 116.488281 -115.265625 115.1875 -114.390625 C 113.894531 -113.515625 112.878906 -112.253906 112.140625 -110.609375 C 111.410156 -108.972656 111.046875 -106.800781 111.046875 -104.09375 L 111.046875 0 Z M 98.671875 0 "/></g></g></g></svg>