<svg xmlns="http://www.w3.org/2000/svg" xmlns:xlink="http://www.w3.org/1999/xlink" width="200" zoomAndPan="magnify" viewBox="0 0 150 149.999998" height="200" preserveAspectRatio="xMidYMid meet" version="1.0"><defs><clipPath id="2f45d7e438"><path d="M 20.90625 4.636719 L 128.90625 4.636719 L 128.90625 145.636719 L 20.90625 145.636719 Z M 20.90625 4.636719 " clip-rule="nonzero"/></clipPath></defs><g clip-path="url(#2f45d7e438)"><path fill="#37bbcf" d="M 127.5 36.015625 L 97.75 6.265625 C 96.734375 5.25 95.359375 4.679688 93.925781 4.679688 L 31.726562 4.679688 C 25.75 4.679688 20.90625 9.523438 20.90625 15.5 L 20.90625 134.492188 C 20.90625 140.46875 25.75 145.308594 31.726562 145.308594 L 118.265625 145.308594 C 124.242188 145.308594 129.082031 140.46875 129.082031 134.492188 L 129.082031 39.839844 C 129.082031 38.40625 128.515625 37.03125 127.5 36.015625 Z M 85.8125 118.265625 L 47.953125 118.265625 C 44.964844 118.265625 42.542969 115.84375 42.542969 112.855469 C 42.542969 109.871094 44.964844 107.449219 47.953125 107.449219 L 85.8125 107.449219 C 88.800781 107.449219 91.222656 109.871094 91.222656 112.855469 C 91.222656 115.84375 88.800781 118.265625 85.8125 118.265625 Z M 102.039062 96.628906 L 47.953125 96.628906 C 44.964844 96.628906 42.542969 94.207031 42.542969 91.222656 C 42.542969 88.238281 44.964844 85.8125 47.953125 85.8125 L 102.039062 85.8125 C 105.023438 85.8125 107.449219 88.238281 107.449219 91.222656 C 107.449219 94.207031 105.023438 96.628906 102.039062 96.628906 Z M 102.039062 74.996094 L 47.953125 74.996094 C 44.964844 74.996094 42.542969 72.574219 42.542969 69.585938 C 42.542969 66.601562 44.964844 64.179688 47.953125 64.179688 L 102.039062 64.179688 C 105.023438 64.179688 107.449219 66.601562 107.449219 69.585938 C 107.449219 72.574219 105.023438 74.996094 102.039062 74.996094 Z M 96.632812 42.542969 C 93.644531 42.542969 91.222656 40.121094 91.222656 37.132812 L 91.222656 14.980469 L 118.785156 42.542969 Z M 96.632812 42.542969 " fill-opacity="1" fill-rule="nonzero"/></g></svg>